<svg viewBox="0 0 32 32">
  <path d="M12.6488,29.4133A6.6707,6.6707,0,0,0,16.5052,17.3V6.2781a3.8565,3.8565,0,0,0-7.7129,0V17.3a6.6707,6.6707,0,0,0,3.8565,12.1132ZM9.5443,17.9622a.4854.4854,0,0,0,.2187-.4063V6.2781a2.8858,2.8858,0,0,1,5.7715,0V17.5559a.4853.4853,0,0,0,.2188.4063,5.6992,5.6992,0,1,1-6.209,0Z"/>
  <path d="M12.6488,26.053a3.3583,3.3583,0,0,0,.4594-6.6861.4625.4625,0,0,0,.0259-.1274V5.7219a.4854.4854,0,0,0-.9707,0V19.24a.4662.4662,0,0,0,.0259.1274,3.3583,3.3583,0,0,0,.46,6.6861Zm0-5.7617a2.395,2.395,0,1,1-2.3955,2.3955A2.3986,2.3986,0,0,1,12.6488,20.2913Z"/>
  <path d="M19.971,7.2053h5.5645a.4854.4854,0,0,0,0-.9707H19.971a.4854.4854,0,0,0,0,.9707Z"/>
  <path d="M19.971,11.197h5.5645a.4856.4856,0,0,0,0-.9712H19.971a.4856.4856,0,0,0,0,.9712Z"/>
  <path d="M19.971,15.1887h5.5645a.4856.4856,0,0,0,0-.9712H19.971a.4856.4856,0,0,0,0,.9712Z"/>
</svg>