<svg width="0" height="0" style="display: none" xmlns="http://www.w3.org/2000/svg" xmlns:xlink="http://www.w3.org/1999/xlink">
<defs>

<symbol id="arrow" preserveAspectRatio="xMinYMin meet" viewBox="0 0 32 32">
  <path d="M22,9a1,1,0,0,0,0,1.42l4.6,4.6H3.06a1,1,0,1,0,0,2H26.58L22,21.59A1,1,0,0,0,22,23a1,1,0,0,0,1.41,0l6.36-6.36a.88.88,0,0,0,0-1.27L23.42,9A1,1,0,0,0,22,9Z"/>
</symbol>
<symbol id="at" preserveAspectRatio="xMinYMin meet" fill="none" stroke="currentColor" stroke-linecap="round" stroke-linejoin="round" stroke-width="2" viewBox="0 0 24 24">
  <circle cx="12" cy="12" r="4"/>
  <path d="M16 8v5a3 3 0 0 0 6 0v-1a10 10 0 1 0-3.92 7.94"/>
</symbol>
<symbol id="calendar" preserveAspectRatio="xMinYMin meet" viewBox="0 0 48 48">
  <path d="M43,43H5c-2.209,0-4-1.791-4-4V9c0-2.209,1.791-4,4-4h38c2.209,0,4,1.791,4,4v30  C47,41.209,45.209,43,43,43z M45,9c0-1.104-0.896-2-2-2H5C3.896,7,3,7.896,3,9v6h42V9z M45,17H3v22c0,1.104,0.896,2,2,2h38  c1.104,0,2-0.896,2-2V17z M41,31h-2c-0.552,0-1-0.447-1-1v-2c0-0.552,0.448-1,1-1h2c0.553,0,1,0.448,1,1v2  C42,30.553,41.553,31,41,31z M41,24h-2c-0.552,0-1-0.447-1-1v-2c0-0.553,0.448-1,1-1h2c0.553,0,1,0.447,1,1v2  C42,23.553,41.553,24,41,24z M33,31h-2c-0.552,0-1-0.447-1-1v-2c0-0.552,0.448-1,1-1h2c0.553,0,1,0.448,1,1v2  C34,30.553,33.553,31,33,31z M33,24h-2c-0.552,0-1-0.447-1-1v-2c0-0.553,0.448-1,1-1h2c0.553,0,1,0.447,1,1v2  C34,23.553,33.553,24,33,24z M25,31h-2c-0.553,0-1-0.447-1-1v-2c0-0.552,0.447-1,1-1h2c0.553,0,1,0.448,1,1v2  C26,30.553,25.553,31,25,31z M25,24h-2c-0.553,0-1-0.447-1-1v-2c0-0.553,0.447-1,1-1h2c0.553,0,1,0.447,1,1v2  C26,23.553,25.553,24,25,24z M17,38h-2c-0.553,0-1-0.447-1-1v-2c0-0.553,0.447-1,1-1h2c0.553,0,1,0.447,1,1v2  C18,37.553,17.553,38,17,38z M17,31h-2c-0.553,0-1-0.447-1-1v-2c0-0.552,0.447-1,1-1h2c0.553,0,1,0.448,1,1v2  C18,30.553,17.553,31,17,31z M17,24h-2c-0.553,0-1-0.447-1-1v-2c0-0.553,0.447-1,1-1h2c0.553,0,1,0.447,1,1v2  C18,23.553,17.553,24,17,24z M9,38H7c-0.553,0-1-0.447-1-1v-2c0-0.553,0.447-1,1-1h2c0.553,0,1,0.447,1,1v2C10,37.553,9.553,38,9,38  z M9,31H7c-0.553,0-1-0.447-1-1v-2c0-0.552,0.447-1,1-1h2c0.553,0,1,0.448,1,1v2C10,30.553,9.553,31,9,31z M23,34h2  c0.553,0,1,0.447,1,1v2c0,0.553-0.447,1-1,1h-2c-0.553,0-1-0.447-1-1v-2C22,34.447,22.447,34,23,34z"/>
</symbol>
<symbol id="chevron" preserveAspectRatio="xMinYMin meet" fill="none" stroke="currentColor" stroke-linecap="round" stroke-linejoin="round" stroke-width="2" viewBox="0 0 24 24">
  <polyline points="9 18 15 12 9 6"/>
</symbol>
<symbol id="close" preserveAspectRatio="xMinYMin meet" viewBox="0 0 512 512">
  <path d="M437.5,386.6L306.9,256l130.6-130.6c14.1-14.1,14.1-36.8,0-50.9c-14.1-14.1-36.8-14.1-50.9,0L256,205.1L125.4,74.5  c-14.1-14.1-36.8-14.1-50.9,0c-14.1,14.1-14.1,36.8,0,50.9L205.1,256L74.5,386.6c-14.1,14.1-14.1,36.8,0,50.9  c14.1,14.1,36.8,14.1,50.9,0L256,306.9l130.6,130.6c14.1,14.1,36.8,14.1,50.9,0C451.5,423.4,451.5,400.6,437.5,386.6z"/>
</symbol>
<symbol id="delete" preserveAspectRatio="xMinYMin meet" viewBox="0 0 448 512">
  <path d="M432 80h-82.38l-34-56.75C306.1 8.827 291.4 0 274.6 0H173.4C156.6 0 141 8.827 132.4 23.25L98.38 80H16C7.125 80 0 87.13 0 96v16C0 120.9 7.125 128 16 128H32v320c0 35.35 28.65 64 64 64h256c35.35 0 64-28.65 64-64V128h16C440.9 128 448 120.9 448 112V96C448 87.13 440.9 80 432 80zM171.9 50.88C172.9 49.13 174.9 48 177 48h94c2.125 0 4.125 1.125 5.125 2.875L293.6 80H154.4L171.9 50.88zM352 464H96c-8.837 0-16-7.163-16-16V128h288v320C368 456.8 360.8 464 352 464zM224 416c8.844 0 16-7.156 16-16V192c0-8.844-7.156-16-16-16S208 183.2 208 192v208C208 408.8 215.2 416 224 416zM144 416C152.8 416 160 408.8 160 400V192c0-8.844-7.156-16-16-16S128 183.2 128 192v208C128 408.8 135.2 416 144 416zM304 416c8.844 0 16-7.156 16-16V192c0-8.844-7.156-16-16-16S288 183.2 288 192v208C288 408.8 295.2 416 304 416z"/>
</symbol>
<symbol id="diet" preserveAspectRatio="xMinYMin meet" viewBox="0 0 480 480">
  <path d="M379.708,152a40.142,40.142,0,0,0,34.633-19.993,8,8,0,0,0,0-8.014,39.992,39.992,0,0,0-69.265,0,8,8,0,0,0,0,8.014A40.142,40.142,0,0,0,379.708,152Zm0-32a24.089,24.089,0,0,1,17.874,8,23.966,23.966,0,0,1-35.747,0A24.088,24.088,0,0,1,379.708,120Z"/>
  <path d="M431.666,410.773c-5.256-4.311-11.463-8.91-18.5-13.718C447.928,376.334,472,332.831,472,288c0-40.636-16.012-89.335-51.784-106.528-14.794-7.11-37.554-10.8-67.444,5.581-1.429-14.286-5.77-26.229-9.856-37.442-7.721-21.184-13.819-37.916.239-66.033l-14.31-7.156c-17.14,34.28-8.916,56.845-.962,78.668,4.625,12.69,9.338,25.637,9.3,41.948-.4.289-.787.561-1.185.857-21.959-16.334-40.706-22.078-56-22.431V128a8.129,8.129,0,0,0-1.6-4.8L232,61.334V16a8,8,0,0,0-8-8H80a8,8,0,0,0-8,8V61.334L25.6,123.2A8.129,8.129,0,0,0,24,128V301.146A32.521,32.521,0,0,0,9.449,320.523c-3.379,11.658-2.547,28.6,20.608,43.134a108.6,108.6,0,0,0,16.9,8.444c-23.713,12.892-26.552,28.7-26.467,35.869.175,14.651,11.621,27.4,29.16,32.486a28.668,28.668,0,0,0,8.017,1.1c14.415,0,32.211-9.751,53.049-29.1,6.265-5.817,12-11.739,16.792-16.971a44.944,44.944,0,0,0,7.383,19.843c9.714,14.386,28.249,24.695,61.975,34.47,32.415,9.395,93.674,18.3,145.66,21.181,12.107.67,23.488,1,33.956,1a318.51,318.51,0,0,0,38-1.951c24.567-3.032,37.474-9.5,40.619-20.351S450.8,426.472,431.666,410.773ZM335.1,215.925a122.047,122.047,0,0,1-4.413,15.463,24.109,24.109,0,0,1-15.484-11.394l-13.85,8.012a40.011,40.011,0,0,0,69.288,0l-13.85-8.012a24.043,24.043,0,0,1-8.355,8.5,118.942,118.942,0,0,0,4.419-22.844c22.537-14.622,43.238-18.023,60.427-9.761C438.435,207.98,456,245.856,456,288c0,41.742-24.742,83.505-58.132,99.088-8.119-5.065-16.992-10.29-26.5-15.6-45.468-25.367-102-50.6-134.411-59.993-6.983-2.024-13.42-3.674-19.391-4.967A112.681,112.681,0,0,1,216,288c0-42.144,17.565-80.02,42.715-92.107,20.166-9.693,45.162-3.346,72.287,18.354A7.949,7.949,0,0,0,335.1,215.925ZM40,136H168v48H40Zm144,0h80v41.134a61.013,61.013,0,0,0-12.216,4.338C216.012,198.665,200,247.364,200,288a127.67,127.67,0,0,0,.994,15.741,92.077,92.077,0,0,0-16.994-.47Zm8-16,32-42.667L256,120ZM88,24H216V56H88ZM84,72H208l-36,48H48ZM40,200H168V306.727c-.623.242-1.242.492-1.849.758A44.931,44.931,0,0,0,149.3,320.277c-1.255-6.98-2.928-15.037-5.109-23.292-8.675-32.832-21-51.777-36.633-56.307-17.54-5.084-34.032-.43-42.012,11.858-3.9,6.008-9.961,20.888,3.184,44.462a108.809,108.809,0,0,0-18.8-1.9h-.3a67.31,67.31,0,0,0-9.625.657Zm14.1,225.088c-10.612-3.075-17.526-9.87-17.615-17.309-.1-8.477,9.2-20.508,35.614-28.849a8,8,0,0,0-.184-15.312c-36.191-10.491-51.6-23.13-47.1-38.64,2.676-9.234,10.767-13.836,24.514-13.836,9.345,0,21.306,2.128,35.954,6.373a8,8,0,0,0,8.342-12.842C75.768,283.5,74.34,268.361,78.959,261.252c4.053-6.239,13.529-8.282,24.141-5.207,17.319,5.02,29.775,52.911,33.31,86.238l-8.042,27.745C107.56,396.3,71.424,430.106,54.105,425.088ZM439.74,445.236c-1.118,3.858-21.214,13.934-96.328,9.776-12.607-.7-25.755-1.754-38.879-3.085l7.812-26.955-15.367-4.454L288.39,450.15c-34.2-4.059-66.637-9.789-87.069-15.711-29.428-8.529-45.827-17.182-53.17-28.056-6.7-9.922-6.818-23.611-.4-45.773s13.844-33.667,24.811-38.468c4.66-2.04,10.289-3.07,17.152-3.07,10.842,0,24.76,2.572,42.781,7.794,2.408.7,4.97,1.5,7.642,2.372l-20,69.01,15.367,4.454,19.745-68.128c31.467,11.819,73.178,31.286,108.316,50.891,8.545,4.767,16.166,9.237,22.972,13.42L378.27,427.42l15.367,4.455,6.957-24C433.889,430.107,440.6,442.259,439.74,445.236Z"/>
</symbol>
<symbol id="dumbbell" preserveAspectRatio="xMinYMin meet" viewBox="0 0 100 100">
  <path d="M100,43h-7.086c-0.393-2.083-2.22-4-4.416-4h-3C85.327,39,85,38.366,85,38.385v-6.551  C85,29.353,82.979,27,80.498,27h-7C71.017,27,69,29.353,69,31.834V43H31V31.834C31,29.353,28.979,27,26.498,27h-7  C17.017,27,15,29.353,15,31.834v6.613C15,38.428,14.669,39,14.498,39h-3c-2.174,0-3.993,1.947-4.409,4H0v14h7.008  c0.057,2.433,2.044,4,4.49,4h3C14.669,61,15,61.365,15,61.346v7.488C15,71.315,17.017,73,19.498,73h7C28.979,73,31,71.315,31,68.834  V57h38v11.834C69,71.315,71.017,73,73.498,73h7C82.979,73,85,71.315,85,68.834v-7.551C85,61.302,85.327,61,85.498,61h3  c2.425,0,4.394-1.597,4.483-4H100V43z M4,47h3v6H4V47z M15,56.5c0,0.276-0.224,0.5-0.5,0.5h-3c-0.276,0-0.5-0.224-0.5-0.5v-13  c0-0.276,0.224-0.5,0.5-0.5h3c0.276,0,0.5,0.224,0.5,0.5V56.5z M27,68.834C27,69.105,26.769,69,26.498,69h-7  C19.227,69,19,69.105,19,68.834V56.896v-13V31.834C19,31.563,19.227,31,19.498,31h7C26.769,31,27,31.563,27,31.834V68.834z M31,53  v-6h38v6H31z M81,68.834C81,69.105,80.769,69,80.498,69h-7C73.227,69,73,69.105,73,68.834v-37C73,31.563,73.227,31,73.498,31h7  C80.769,31,81,31.563,81,31.834v12v13V68.834z M89,56.5c0,0.276-0.224,0.5-0.5,0.5h-3c-0.276,0-0.5-0.224-0.5-0.5v-13  c0-0.276,0.224-0.5,0.5-0.5h3c0.276,0,0.5,0.224,0.5,0.5V56.5z M96,53h-3v-6h3V53z"/>
</symbol>
<symbol id="edit" preserveAspectRatio="xMinYMin meet" fill="none" stroke="currentColor" stroke-linecap="round" stroke-linejoin="round" stroke-width="2" viewBox="0 0 24 24" >
  <path d="M11 4H4a2 2 0 0 0-2 2v14a2 2 0 0 0 2 2h14a2 2 0 0 0 2-2v-7"/>
  <path d="M18.5 2.5a2.121 2.121 0 0 1 3 3L12 15l-4 1 1-4 9.5-9.5z"/>
</symbol>
<symbol id="gender" preserveAspectRatio="xMinYMin meet" viewBox="0 0 256 256">
  <circle cx="120" cy="108" fill="none" r="60" stroke="currentColor" stroke-linecap="round" stroke-linejoin="round" stroke-width="16"/>
  <line fill="none" stroke="currentColor" stroke-linecap="round" stroke-linejoin="round" stroke-width="16" x1="120" x2="120" y1="168" y2="232"/>
  <line fill="none" stroke="currentColor" stroke-linecap="round" stroke-linejoin="round" stroke-width="16" x1="88" x2="152" y1="204" y2="204"/>
  <polyline fill="none" points="168 24 208 24 208 64" stroke="currentColor" stroke-linecap="round" stroke-linejoin="round" stroke-width="16"/>
  <line fill="none" stroke="currentColor" stroke-linecap="round" stroke-linejoin="round" stroke-width="16" x1="164.4" x2="208" y1="67.6" y2="24"/>
</symbol>
<symbol id="github" preserveAspectRatio="xMinYMin meet">
    <path d="M12 0C5.374 0 0 5.373 0 12c0 5.302 3.438 9.8 8.207 11.387.599.111.793-.261.793-.577v-2.234c-3.338.726-4.033-1.416-4.033-1.416-.546-1.387-1.333-1.756-1.333-1.756-1.089-.745.083-.729.083-.729 1.205.084 1.839 1.237 1.839 1.237 1.07 1.834 2.807 1.304 3.492.997.107-.775.418-1.305.762-1.604-2.665-.305-5.467-1.334-5.467-5.931 0-1.311.469-2.381 1.236-3.221-.124-.303-.535-1.524.117-3.176 0 0 1.008-.322 3.301 1.23A11.509 11.509 0 0 1 12 5.803c1.02.005 2.047.138 3.006.404 2.291-1.552 3.297-1.23 3.297-1.23.653 1.653.242 2.874.118 3.176.77.84 1.235 1.911 1.235 3.221 0 4.609-2.807 5.624-5.479 5.921.43.372.823 1.102.823 2.222v3.293c0 .319.192.694.801.576C20.566 21.797 24 17.3 24 12c0-6.627-5.373-12-12-12z"/>
</symbol>
<symbol id="gym" preserveAspectRatio="xMinYMin meet" fill="none" stroke-width="1.5" viewBox="0 0 24 24">
  <path d="M7.4 7H4.6C4.26863 7 4 7.26863 4 7.6V16.4C4 16.7314 4.26863 17 4.6 17H7.4C7.73137 17 8 16.7314 8 16.4V7.6C8 7.26863 7.73137 7 7.4 7Z" stroke="currentColor" stroke-linecap="round" stroke-linejoin="round"/>
  <path d="M19.4 7H16.6C16.2686 7 16 7.26863 16 7.6V16.4C16 16.7314 16.2686 17 16.6 17H19.4C19.7314 17 20 16.7314 20 16.4V7.6C20 7.26863 19.7314 7 19.4 7Z" stroke="currentColor" stroke-linecap="round" stroke-linejoin="round"/>
  <path d="M1 14.4V9.6C1 9.26863 1.26863 9 1.6 9H3.4C3.73137 9 4 9.26863 4 9.6V14.4C4 14.7314 3.73137 15 3.4 15H1.6C1.26863 15 1 14.7314 1 14.4Z" stroke="currentColor" stroke-linecap="round" stroke-linejoin="round"/>
  <path d="M23 14.4V9.6C23 9.26863 22.7314 9 22.4 9H20.6C20.2686 9 20 9.26863 20 9.6V14.4C20 14.7314 20.2686 15 20.6 15H22.4C22.7314 15 23 14.7314 23 14.4Z" stroke="currentColor" stroke-linecap="round" stroke-linejoin="round"/>
  <path d="M8 12H16" stroke="currentColor" stroke-linecap="round" stroke-linejoin="round"/>
</symbol>
<symbol id="height" preserveAspectRatio="xMinYMin meet" viewBox="0 0 15 15">
  <path d="M7.1813 1.68179C7.35704 1.50605 7.64196 1.50605 7.8177 1.68179L10.3177 4.18179C10.4934 4.35753 10.4934 4.64245 10.3177 4.81819C10.142 4.99392 9.85704 4.99392 9.6813 4.81819L7.9495 3.08638L7.9495 11.9136L9.6813 10.1818C9.85704 10.0061 10.142 10.0061 10.3177 10.1818C10.4934 10.3575 10.4934 10.6424 10.3177 10.8182L7.8177 13.3182C7.73331 13.4026 7.61885 13.45 7.4995 13.45C7.38015 13.45 7.26569 13.4026 7.1813 13.3182L4.6813 10.8182C4.50557 10.6424 4.50557 10.3575 4.6813 10.1818C4.85704 10.0061 5.14196 10.0061 5.3177 10.1818L7.0495 11.9136L7.0495 3.08638L5.3177 4.81819C5.14196 4.99392 4.85704 4.99392 4.6813 4.81819C4.50557 4.64245 4.50557 4.35753 4.6813 4.18179L7.1813 1.68179Z"/>
</symbol>
<symbol id="menu-dots" preserveAspectRatio="xMinYMin meet" viewBox="0 0 32 32" xml:space="preserve">
  <path d="M13,16c0,1.654,1.346,3,3,3s3-1.346,3-3s-1.346-3-3-3S13,14.346,13,16z"/>
  <path d="M13,26c0,1.654,1.346,3,3,3s3-1.346,3-3s-1.346-3-3-3S13,24.346,13,26z"/>
  <path d="M13,6c0,1.654,1.346,3,3,3s3-1.346,3-3s-1.346-3-3-3S13,4.346,13,6z"/>
</symbol>
<symbol id="password" preserveAspectRatio="xMinYMin meet" viewBox="0 0 1262 1710.258">
  <path d="M1196.495,713.258H1090V459.592c0-253.285-205.802-459.35-459.001-459.35C377.799,0.242,172,206.442,172,459.892v253.366    H66.686C30.195,713.258,0,742.241,0,778.731v766.42c0,91.079,74.712,165.106,165.792,165.106h931.597    c91.08,0,164.611-74.027,164.611-165.106v-766.42C1262,742.241,1232.985,713.258,1196.495,713.258z M304,459.892    c0-180.588,146.664-327.508,326.999-327.508C811.335,132.384,958,279.168,958,459.592v253.666H304V459.892z M1130,1545.151    c0,18.218-14.395,33.106-32.611,33.106H165.792c-18.216,0-33.792-14.889-33.792-33.106V845.258h998V1545.151z"/>
  <path d="M631,1409.707c36.491,0,66-29.58,66-66.071v-237.854c0-36.49-29.51-66.07-66-66.07c-36.49,0-66,29.58-66,66.07v237.854    C565,1380.127,594.509,1409.707,631,1409.707z"/>
</symbol>
<symbol id="profile" preserveAspectRatio="xMinYMin meet" viewBox="0 0 32 32">
  <path d="M16,16A7,7,0,1,0,9,9,7,7,0,0,0,16,16ZM16,4a5,5,0,1,1-5,5A5,5,0,0,1,16,4Z"/>
  <path d="M17,18H15A11,11,0,0,0,4,29a1,1,0,0,0,1,1H27a1,1,0,0,0,1-1A11,11,0,0,0,17,18ZM6.06,28A9,9,0,0,1,15,20h2a9,9,0,0,1,8.94,8Z"/>
</symbol>
<symbol id="repeat" preserveAspectRatio="xMinYMin meet" viewBox="0 0 24 24" fill="none" stroke="currentColor" stroke-linecap="round" stroke-linejoin="round" stroke-width="2">
  <polyline points="17 1 21 5 17 9"/>
  <path d="M3 11V9a4 4 0 0 1 4-4h14"/>
  <polyline points="7 23 3 19 7 15"/>
  <path d="M21 13v2a4 4 0 0 1-4 4H3"/>
</symbol>
<symbol id="ruler" preserveAspectRatio="xMinYMin meet" viewBox="0 0 50 50">
  <path d="M0.586,34L16,49.414L49.414,16L34,0.586L0.586,34z M16,46.586L3.414,34L5.5,31.914l4.793,4.793l1.414-1.414L6.914,30.5   l3.586-3.586l2.793,2.793l1.414-1.414L11.914,25.5l3.586-3.586l4.793,4.793l1.414-1.414L16.914,20.5l3.586-3.586l2.793,2.793   l1.414-1.414L21.914,15.5l3.586-3.586l4.793,4.793l1.414-1.414L26.914,10.5L30.5,6.914l2.793,2.793l1.414-1.414L31.914,5.5   L34,3.414L46.586,16L16,46.586z"/>
</symbol>
<symbol id="source-code" preserveAspectRatio="xMinYMin meet" viewBox="0 0 32 32">
  <polygon points="22,22 22,26 32,16 22,6 22,10 28,16  "/>
  <polygon points="10,22 10,26 0,16 10,6 10,10 4,16  "/>
  <polygon points="10,20 14,20 22,12 18,12  "/>
</symbol>

<symbol id="speedometer" preserveAspectRatio="xMinYMin meet" viewBox="0 0 48 48">
  <path d="M44.9,32.971c0,0.011,0.006,0.019,0.006,0.029c0,0.005-0.003,0.01-0.003,0.016  c0.001,0.005,0.003,0.01,0.003,0.016c0,0.552-0.447,1-1,1C43.921,34.031,35,34,35,34c-0.553,0-1-0.448-1-1c0-0.553,0.447-1,1-1  h7.946C42.965,31.666,43,31.338,43,31c0-10.493-8.507-19-19-19S5,20.507,5,31c0,0.338,0.035,0.666,0.053,1H13c0.553,0,1,0.447,1,1  c0,0.552-0.447,1-1,1c0,0-8.92,0.031-8.906,0.031c-0.553,0-1-0.448-1-1c0-0.006,0.002-0.011,0.003-0.016  c0-0.006-0.003-0.011-0.003-0.016c0-0.011,0.006-0.019,0.006-0.028C3.039,32.321,3,31.665,3,31c0-11.599,9.402-21,21-21  s21,9.401,21,21C45,31.665,44.961,32.321,44.9,32.971z M17.523,21.128c0.393-0.216,0.865-0.144,1.189,0.133l-0.05-0.083  c8.774,6.42,10.577,9.373,10.61,9.428c1.433,2.357,0.581,5.371-1.899,6.731s-5.653,0.553-7.085-1.804  c-0.035-0.053-1.824-3.014-3.291-13.442l0.051,0.082C16.959,21.769,17.131,21.343,17.523,21.128z M22.086,34.549  c0.555,0.911,1.589,1.478,2.699,1.478c0.542,0,1.079-0.137,1.552-0.397c0.72-0.395,1.235-1.031,1.45-1.794  c0.216-0.764,0.105-1.56-0.303-2.232c-0.017-0.025-1.572-2.386-8.062-7.348C20.703,32.071,22.075,34.529,22.086,34.549z"/>
</symbol>
<symbol id="target" preserveAspectRatio="xMinYMin meet" viewBox="0 0 60 60">
  <path  d="M10,10 L7.414,10 L3.414,6 L5,6 C5.553,6 6,5.552 6,5 L6,3.414 L10,7.414 L10,10 Z M30,0 C23.354,0 16.914,2.216 11.677,6.263 L5.707,0.293 C5.421,0.007 4.991,-0.077 4.617,0.076 C4.243,0.231 4,0.596 4,1 L4,4 L1,4 C0.596,4 0.23,4.244 0.076,4.617 C-0.079,4.991 0.007,5.421 0.293,5.707 L6.293,11.707 C6.48,11.895 6.734,12 7,12 L10.586,12 L29.293,30.707 C29.488,30.902 29.744,31 30,31 C30.256,31 30.512,30.902 30.707,30.707 C31.098,30.316 31.098,29.684 30.707,29.293 L27.94,26.527 C28.522,26.187 29.205,26 30,26 C32.206,26 34,27.794 34,30 C34,32.206 32.206,34 30,34 C27.794,34 26,32.206 26,30 C26,29.448 25.553,29 25,29 C24.447,29 24,29.448 24,30 C24,33.309 26.691,36 30,36 C33.309,36 36,33.309 36,30 C36,26.691 33.309,24 30,24 C28.655,24 27.462,24.372 26.488,25.074 L22.256,20.842 C24.42,19.007 27.131,18 30,18 C36.617,18 42,23.383 42,30 C42,36.617 36.617,42 30,42 C23.383,42 18,36.617 18,30 C18,28.181 18.41,26.417 19.219,24.759 C19.461,24.262 19.255,23.664 18.759,23.421 C18.261,23.179 17.663,23.387 17.422,23.882 C16.479,25.816 16,27.874 16,30 C16,37.72 22.28,44 30,44 C37.72,44 44,37.72 44,30 C44,22.28 37.72,16 30,16 C26.597,16 23.387,17.218 20.842,19.428 L16.601,15.187 C20.285,11.848 24.997,10 30,10 C41.028,10 50,18.972 50,30 C50,41.028 41.028,50 30,50 C18.972,50 10,41.028 10,30 C10,26.085 11.141,22.286 13.298,19.013 C13.602,18.552 13.475,17.932 13.014,17.628 C12.551,17.324 11.932,17.453 11.628,17.913 C9.255,21.513 8,25.693 8,30 C8,42.131 17.869,52 30,52 C42.131,52 52,42.131 52,30 C52,17.869 42.131,8 30,8 C24.463,8 19.251,10.057 15.187,13.773 L12,10.586 L12,8.57 C17.04,4.333 23.411,2 30,2 C45.439,2 58,14.561 58,30 C58,45.439 45.439,58 30,58 C14.561,58 2,45.439 2,30 C2,24.707 3.488,19.551 6.305,15.09 C6.6,14.624 6.46,14.006 5.993,13.711 C5.525,13.417 4.909,13.557 4.613,14.023 C1.596,18.803 -1.21569421e-14,24.328 -1.21569421e-14,30 C-1.21569421e-14,46.542 13.458,60 30,60 C46.542,60 60,46.542 60,30 C60,13.458 46.542,0 30,0 L30,0 Z"/>
</symbol>
<symbol id="termometer" preserveAspectRatio="xMinYMin meet" viewBox="0 0 32 32">
  <path d="M12.6488,29.4133A6.6707,6.6707,0,0,0,16.5052,17.3V6.2781a3.8565,3.8565,0,0,0-7.7129,0V17.3a6.6707,6.6707,0,0,0,3.8565,12.1132ZM9.5443,17.9622a.4854.4854,0,0,0,.2187-.4063V6.2781a2.8858,2.8858,0,0,1,5.7715,0V17.5559a.4853.4853,0,0,0,.2188.4063,5.6992,5.6992,0,1,1-6.209,0Z"/>
  <path d="M12.6488,26.053a3.3583,3.3583,0,0,0,.4594-6.6861.4625.4625,0,0,0,.0259-.1274V5.7219a.4854.4854,0,0,0-.9707,0V19.24a.4662.4662,0,0,0,.0259.1274,3.3583,3.3583,0,0,0,.46,6.6861Zm0-5.7617a2.395,2.395,0,1,1-2.3955,2.3955A2.3986,2.3986,0,0,1,12.6488,20.2913Z"/>
  <path d="M19.971,7.2053h5.5645a.4854.4854,0,0,0,0-.9707H19.971a.4854.4854,0,0,0,0,.9707Z"/>
  <path d="M19.971,11.197h5.5645a.4856.4856,0,0,0,0-.9712H19.971a.4856.4856,0,0,0,0,.9712Z"/>
  <path d="M19.971,15.1887h5.5645a.4856.4856,0,0,0,0-.9712H19.971a.4856.4856,0,0,0,0,.9712Z"/>
</symbol>
<symbol id="timer" preserveAspectRatio="xMinYMin meet" viewBox="0 0 48 48">
  <path d="M37.386,14.996C40.245,18.183,42,22.381,42,27c0,9.941-8.059,18-18,18  S6,36.941,6,27c0-8.917,6.49-16.299,15-17.73V5h-2c-0.553,0-1-0.448-1-1s0.447-1,1-1h10c0.553,0,1,0.448,1,1s-0.447,1-1,1h-2v4.265  c3.427,0.581,6.524,2.124,9.005,4.35l2.329-2.329c0.381-0.381,0.999-0.381,1.381,0c0.381,0.381,0.381,1,0,1.381L37.386,14.996z   M25,5h-2v4.051C23.333,9.032,23.662,9,24,9s0.667,0.029,1,0.047V5z M24,11c-8.836,0-16,7.163-16,16c0,8.837,7.164,16,16,16  c8.837,0,16-7.163,16-16C40,18.164,32.837,11,24,11z M24,31c-2.209,0-4-1.791-4-4c0-0.749,0.219-1.442,0.578-2.041l-5.293-5.292  c-0.381-0.381-0.381-1,0-1.381c0.382-0.381,1-0.381,1.381,0l5.293,5.292C22.559,23.219,23.251,23,24,23c2.209,0,4,1.791,4,4  S26.209,31,24,31z M24,25c-1.104,0-2,0.896-2,2s0.896,2,2,2s2-0.896,2-2S25.104,25,24,25z" />
</symbol>
<symbol id="twitter" preserveAspectRatio="xMinYMin meet">
  <path d="M24 4.557a9.83 9.83 0 0 1-2.828.775 4.932 4.932 0 0 0 2.165-2.724 9.864 9.864 0 0 1-3.127 1.195 4.916 4.916 0 0 0-3.594-1.555c-3.179 0-5.515 2.966-4.797 6.045A13.978 13.978 0 0 1 1.671 3.149a4.93 4.93 0 0 0 1.523 6.574 4.903 4.903 0 0 1-2.229-.616c-.054 2.281 1.581 4.415 3.949 4.89a4.935 4.935 0 0 1-2.224.084 4.928 4.928 0 0 0 4.6 3.419A9.9 9.9 0 0 1 0 19.54a13.94 13.94 0 0 0 7.548 2.212c9.142 0 14.307-7.721 13.995-14.646A10.025 10.025 0 0 0 24 4.557z"/>
</symbol>
<symbol id="weight" preserveAspectRatio="xMinYMin meet" viewBox="0 0 24 24">
  <path d="M14 22.75H10C4.57 22.75 2.25 20.43 2.25 15V9C2.25 3.57 4.57 1.25 10 1.25H14C19.43 1.25 21.75 3.57 21.75 9V15C21.75 20.43 19.43 22.75 14 22.75ZM10 2.75C5.39 2.75 3.75 4.39 3.75 9V15C3.75 19.61 5.39 21.25 10 21.25H14C18.61 21.25 20.25 19.61 20.25 15V9C20.25 4.39 18.61 2.75 14 2.75H10Z" />
  <path d="M15.0701 12.54C14.8901 12.54 14.7101 12.47 14.5701 12.35C13.1101 11.05 10.8901 11.05 9.43011 12.35C9.27011 12.5 9.05011 12.56 8.82011 12.53C8.60011 12.5 8.41011 12.37 8.29011 12.18L6.11011 8.68001C5.92011 8.37001 5.98011 7.97001 6.25011 7.72001C9.53011 4.81001 14.4701 4.81001 17.7501 7.72001C18.0201 7.96001 18.0801 8.37001 17.8901 8.68001L15.7101 12.18C15.5901 12.37 15.4001 12.49 15.1801 12.53C15.1401 12.53 15.1001 12.54 15.0701 12.54ZM12.0001 9.87001C13.0001 9.87001 13.9901 10.15 14.8601 10.7L16.2601 8.45001C13.7301 6.57001 10.2601 6.57001 7.73011 8.45001L9.13011 10.7C10.0101 10.14 11.0001 9.87001 12.0001 9.87001Z" />
</symbol>

</defs>
</svg>